name Walk1.mot
datacolumns 19
datarows 10
range 2.22500000 2.23400000
endheader

                time	   L_ground_force_vx	   L_ground_force_vy	   L_ground_force_vz	   L_ground_force_px	   L_ground_force_py	   L_ground_force_pz	   R_ground_force_vx	   R_ground_force_vy	   R_ground_force_vz	   R_ground_force_px	   R_ground_force_py	   R_ground_force_pz	   L_ground_torque_x	   L_ground_torque_y	   L_ground_torque_z	   R_ground_torque_x	   R_ground_torque_y	   R_ground_torque_z	
          2.22500000	          0.00000000	          0.00000000	          0.00000000	          0.00000000	          0.00000000	          0.00000000	        -15.23459141	        939.32189412	        -46.96554226	          0.32650523	          0.00000000	          0.13674171	          0.00000000	          0.00000000	          0.00000000	          0.00000000	          4.87261499	          0.00000000	
          2.22600000	          0.00000000	          0.00000000	          0.00000000	          0.00000000	          0.00000000	          0.00000000	        -15.20508037	        938.17894120	        -46.93540000	          0.32694938	          0.00000000	          0.13686417	          0.00000000	          0.00000000	          0.00000000	          0.00000000	          4.84872763	          0.00000000	
          2.22700000	          0.00000000	          0.00000000	          0.00000000	          0.00000000	          0.00000000	          0.00000000	        -15.15547606	        936.95857703	        -46.91273716	          0.32741422	          0.00000000	          0.13700773	          0.00000000	          0.00000000	          0.00000000	          0.00000000	          4.82867153	          0.00000000	
          2.22800000	          0.00000000	          0.00000000	          0.00000000	          0.00000000	          0.00000000	          0.00000000	        -15.08011898	        935.65540848	        -46.91964513	          0.32789565	          0.00000000	          0.13715867	          0.00000000	          0.00000000	          0.00000000	          0.00000000	          4.81676275	          0.00000000	
          2.22900000	          0.00000000	          0.00000000	          0.00000000	          0.00000000	          0.00000000	          0.00000000	        -14.98913813	        934.30494124	        -46.97175603	          0.32838577	          0.00000000	          0.13730008	          0.00000000	          0.00000000	          0.00000000	          0.00000000	          4.81439447	          0.00000000	
          2.23000000	          0.00000000	          0.00000000	          0.00000000	          0.00000000	          0.00000000	          0.00000000	        -14.89571045	        932.95929461	        -47.06741912	          0.32888341	          0.00000000	          0.13742353	          0.00000000	          0.00000000	          0.00000000	          0.00000000	          4.81641487	          0.00000000	
          2.23100000	          0.00000000	          0.00000000	          0.00000000	          0.00000000	          0.00000000	          0.00000000	        -14.80489285	        931.66107863	        -47.19145315	          0.32939598	          0.00000000	          0.13753314	          0.00000000	          0.00000000	          0.00000000	          0.00000000	          4.81164483	          0.00000000	
          2.23200000	          0.00000000	          0.00000000	          0.00000000	          0.00000000	          0.00000000	          0.00000000	        -14.71182870	        930.42859180	        -47.32337996	          0.32992843	          0.00000000	          0.13764083	          0.00000000	          0.00000000	          0.00000000	          0.00000000	          4.79049255	          0.00000000	
          2.23300000	          0.00000000	          0.00000000	          0.00000000	          0.00000000	          0.00000000	          0.00000000	        -14.60402451	        929.25048537	        -47.44660610	          0.33046995	          0.00000000	          0.13775836	          0.00000000	          0.00000000	          0.00000000	          0.00000000	          4.75403323	          0.00000000	
          2.23400000	          0.00000000	          0.00000000	          0.00000000	          0.00000000	          0.00000000	          0.00000000	        -14.46880982	        928.09149305	        -47.56089770	          0.33099523	          0.00000000	          0.13788814	          0.00000000	          0.00000000	          0.00000000	          0.00000000	          4.71253426	          0.00000000	
